<?xml version="1.0" encoding="utf-8"?>
<!-- Generator: Adobe Illustrator 26.1.0, SVG Export Plug-In . SVG Version: 6.00 Build 0)  -->
<svg version="1.1" id="Capa_1" xmlns="http://www.w3.org/2000/svg" xmlns:xlink="http://www.w3.org/1999/xlink" x="0px" y="0px"
	 viewBox="0 0 1473.99 272.35" style="enable-background:new 0 0 1473.99 272.35;" xml:space="preserve">
<style type="text/css">
	.st0{fill:#010202;}
</style>
<g>
	<path class="st0" d="M438.78,0.49h-34.13L278.82,204.1l63.84,68.25h159.96l61.75-68.25L438.78,0.49z M421.83,31.6l91.7,155.54
		h-183.4L421.83,31.6z M493.1,245.65H357.75l-27.63-29.72h183.4L493.1,245.65z"/>
	<polygon class="st0" points="652.59,65.27 745.45,198.76 838.32,66.43 838.32,272.35 873.6,272.35 873.6,0.26 838.32,0.26 
		745.45,142.11 652.59,0.26 617.3,0.26 617.3,272.35 652.59,272.35 	"/>
	<polygon class="st0" points="954.94,272.35 954.94,0.26 990.23,0.26 1149.25,210.35 1149.25,0.26 1184.54,0.26 1184.54,272.35 
		1149.25,272.35 990.23,55.94 990.23,272.35 	"/>
	<g>
		<path class="st0" d="M235.41,137.47c0-75.92-59.66-137.2-135.58-137.2H0v272.09h103.08C178.76,272.58,235.41,213.38,235.41,137.47
			z M107.72,236.83h-1.16H34.59V31.37h69.88h3.25h-3.25c52.93,0,95.18,46.2,95.18,103.54s-39.7,101.92-92.86,101.92H107.72
			L107.72,236.83z"/>
	</g>
	<g>
		<path class="st0" d="M1282.05,181.34c0.7,14.63,4.18,26.47,9.98,35.75c11.14,17.18,30.88,25.54,58.97,25.54
			c12.54,0,24.14-1.86,34.59-5.57c19.97-7.2,30.18-20.2,30.18-39c0-14.16-4.18-24.14-12.77-29.95c-8.59-5.8-22.05-10.91-40.4-15.32
			l-33.89-7.89c-22.05-5.11-37.84-10.91-46.9-16.95c-15.79-10.68-23.91-26.93-23.91-48.29c0-23.22,7.89-42.25,23.45-57.11
			c15.55-14.86,37.61-22.29,66.4-22.29c26.23,0,48.75,6.5,67.09,19.5s27.63,33.89,27.63,62.68h-32.73
			c-1.63-13.93-5.34-24.38-10.68-31.81c-10.21-13.47-27.63-20.2-52-20.2c-19.73,0-33.89,4.41-42.72,13c-8.59,8.59-13,18.8-13,30.18
			c0,12.54,5.11,21.82,15.32,27.86c6.73,3.71,21.82,8.36,45.5,14.16l35.06,8.36c16.95,3.95,29.95,9.52,39.23,16.25
			c15.79,12.07,23.91,29.48,23.91,52.47c0,28.56-10.21,48.98-30.41,61.29c-20.2,12.3-43.88,18.34-70.58,18.34
			c-31.34,0-55.72-8.13-73.59-24.61c-17.64-16.25-26.47-38.31-26-66.16h32.27V181.34z"/>
	</g>
	<path d="M1455.74,0c3.13,0,6.13,0.78,9,2.35c2.87,1.56,5.13,3.81,6.78,6.73c1.64,2.92,2.46,5.98,2.46,9.17
		c0,3.18-0.81,6.2-2.42,9.09s-3.86,5.13-6.74,6.74c-2.88,1.61-5.91,2.42-9.09,2.42c-3.18,0-6.2-0.81-9.09-2.42
		c-2.88-1.61-5.13-3.86-6.74-6.74s-2.42-5.91-2.42-9.09c0-3.19,0.82-6.25,2.47-9.17c1.64-2.92,3.9-5.16,6.78-6.73
		C1449.61,0.78,1452.61,0,1455.74,0z M1455.77,3.57c-2.51,0-4.92,0.63-7.22,1.88c-2.3,1.25-4.12,3.06-5.44,5.41
		c-1.33,2.35-1.99,4.81-1.99,7.38c0,2.56,0.65,4.99,1.94,7.31s3.1,4.13,5.42,5.43c2.32,1.3,4.75,1.95,7.29,1.95
		c2.56,0,4.99-0.65,7.3-1.95c2.31-1.3,4.12-3.11,5.42-5.43c1.3-2.32,1.95-4.76,1.95-7.31c0-2.57-0.66-5.03-1.99-7.38
		c-1.33-2.35-3.14-4.15-5.45-5.41C1460.68,4.2,1458.27,3.57,1455.77,3.57z M1448.28,28.01V8.65h3.93c3.68,0,5.75,0.02,6.19,0.05
		c1.3,0.11,2.31,0.37,3.04,0.77c0.72,0.41,1.33,1.03,1.81,1.86c0.48,0.83,0.73,1.76,0.73,2.78c0,1.4-0.46,2.59-1.37,3.58
		c-0.91,0.99-2.2,1.61-3.85,1.85c0.59,0.22,1.04,0.46,1.36,0.73c0.32,0.26,0.75,0.76,1.31,1.49c0.14,0.19,0.62,0.98,1.43,2.36
		l2.29,3.91h-4.86l-1.62-3.14c-1.1-2.11-2-3.44-2.72-3.99c-0.71-0.55-1.62-0.82-2.71-0.82h-1.02v7.95H1448.28z M1452.21,17.01h1.6
		c2.27,0,3.68-0.09,4.23-0.26c0.55-0.17,0.98-0.48,1.3-0.92c0.32-0.44,0.48-0.93,0.48-1.49c0-0.54-0.16-1.02-0.46-1.44
		c-0.31-0.42-0.75-0.72-1.32-0.9c-0.57-0.18-1.98-0.27-4.22-0.27h-1.6V17.01z"/>
</g>
</svg>
